<svg width="95" height="95" viewBox="0 0 95 95" fill="none" xmlns="http://www.w3.org/2000/svg">
<path d="M41.8047 15.5288L52.1112 21.1317C54.2243 22.2804 55.8649 23.59 57.0327 25.0604C58.2132 26.5377 58.8711 28.132 59.0064 29.8433C59.1417 31.5545 58.7079 33.3324 57.7052 35.177C56.8847 36.6862 55.9269 37.8449 54.8318 38.6533C53.7562 39.4557 52.5666 39.9704 51.2629 40.1974C49.9788 40.4185 48.6136 40.4117 47.1675 40.177L44.8384 40.1642L35.8795 35.2939L38.3029 30.7457L44.9651 34.3674C45.9647 34.9109 46.8917 35.1808 47.7461 35.1774C48.6004 35.1739 49.3674 34.9391 50.047 34.473C50.7392 34.0138 51.3168 33.3585 51.7796 32.5071C52.2704 31.6042 52.5302 30.7344 52.5588 29.8977C52.5874 29.061 52.3611 28.2862 51.8798 27.5733C51.3985 26.8605 50.6517 26.2289 49.6394 25.6786L45.0271 23.1712L32.1841 46.7959L26.4899 43.7005L41.8047 15.5288ZM41.9402 52.0996L42.465 36.1166L48.5029 39.3488L48.1802 55.1409L48.0329 55.4117L41.9402 52.0996Z" fill="#EF5C40"/>
<path d="M52.2812 79.1907L41.9748 73.5878C39.8616 72.4391 38.2211 71.1295 37.0532 69.659C35.8728 68.1817 35.2149 66.5875 35.0796 64.8762C34.9443 63.165 35.378 61.3871 36.3808 59.5425C37.2012 58.0333 38.159 56.8745 39.2542 56.0662C40.3297 55.2638 41.5193 54.7491 42.8231 54.522C44.1072 54.301 45.4723 54.3078 46.9185 54.5425L49.2475 54.5553L58.2064 59.4256L55.7831 63.9738L49.1209 60.3521C48.1212 59.8086 47.1942 59.5386 46.3399 59.5421C45.4855 59.5456 44.7186 59.7804 44.039 60.2465C43.3467 60.7057 42.7692 61.361 42.3063 62.2123C41.8155 63.1153 41.5557 63.9851 41.5271 64.8218C41.4985 65.6585 41.7248 66.4333 42.2062 67.1461C42.6875 67.859 43.4343 68.4906 44.4466 69.0409L49.0589 71.5482L61.9018 47.9235L67.596 51.019L52.2812 79.1907ZM52.1458 42.6199L51.6209 58.6029L45.583 55.3707L45.9057 39.5786L46.053 39.3077L52.1458 42.6199Z" fill="#51ACB4"/>
<rect x="47.5" y="2.82843" width="63.1751" height="63.1751" rx="7" transform="rotate(45 47.5 2.82843)" stroke="#51ACB4" stroke-width="4"/>
</svg>
